<?xml version="1.0" encoding="utf-8"?>
<!-- Generator: Adobe Illustrator 22.1.0, SVG Export Plug-In . SVG Version: 6.00 Build 0)  -->
<svg version="1.1" id="kency" xmlns="http://www.w3.org/2000/svg" xmlns:xlink="http://www.w3.org/1999/xlink" x="0px" y="0px"
	 viewBox="0 0 450 389.7" style="enable-background:new 0 0 450 389.7;" xml:space="preserve">
<style type="text/css">
	.st0{opacity:0.7;fill:#44C660;}
	.st1{opacity:0.7;fill:#A294E0;}
	.st2{opacity:0.7;fill:#CEC84D;}
</style>
<g>
	<polygon class="st0" points="337.7,260.2 337.7,260.2 225.2,65.4 224.5,65.8 225,65 187.5,0 112.5,0 75,65 112.5,129.9 
		113.5,129.9 112.6,130.4 225.1,325.2 225.2,325.2 262.5,389.7 337.5,389.7 375,324.8 	"/>
	<polygon class="st1" points="375,65 337.5,0 262.5,0 225,65 225.5,65.8 224.7,65.4 112.2,260.2 112.2,260.2 75,324.8 112.5,389.7 
		187.5,389.7 224.7,325.2 224.8,325.2 337.3,130.4 336.5,129.9 337.5,129.9 	"/>
	<polygon class="st2" points="412.5,129.9 337.5,129.9 337,130.7 337,129.9 112.5,129.9 112,129.9 37.5,129.9 0,194.8 37.5,259.8 
		112,259.8 112,259.9 337,259.9 337,258.9 337.5,259.8 412.5,259.8 450,194.8 	"/>
</g>
</svg>
